<?xml version="1.0" ?><svg style="enable-background:new 0 0 48 48;" version="1.1" viewBox="0 0 48 48" xml:space="preserve" xmlns="http://www.w3.org/2000/svg" xmlns:xlink="http://www.w3.org/1999/xlink"><g id="Icons"><g><g><path d="M23.625,37.45975v-8.58l-3.56-0.02l0.1-4.15h3.5v-3c0-0.4206,0.0513-0.85,0.1231-1.2638     c0.0642-0.37,0.1559-0.7359,0.2839-1.0893c0.1152-0.3184,0.2602-0.6264,0.4389-0.9143c0.1673-0.2696,0.3643-0.5207,0.5884-0.7455     c0.2209-0.2215,0.4676-0.4167,0.7325-0.5829c0.2745-0.1722,0.5678-0.3133,0.8711-0.4266     c0.4992-0.1864,1.0283-0.3056,1.558-0.3606c0.5479-0.0569,1.1014-0.0277,1.651-0.0161c0.227,0.0049,0.4541,0.0097,0.6812,0.0126     c0.4221,0.0054,0.8441,0.0104,1.2661,0.015c0.0162,0.0002,0.0325,0.0004,0.0487,0.0006l-0.1029,3.8409c0,0-0.49-0.02-2.21,0     c-1.69,0.02-1.71,1.28-1.71,1.34l-0.02,3.19l3.94,0.07l-0.57,4.08h-3.35l0.008,8.6305l7.062-0.0305c1.39,0,2.52-1.13,2.52-2.52     v-21.91c0-1.39-1.13-2.52-2.52-2.52h-21.91c-1.39,0-2.52,1.13-2.52,2.52v21.91c0,1.39,1.13,2.52,2.52,2.52H23.625" style="fill:#5F83CF;"/></g><path d="M35.8647,14.48385h-23.598v-1.4684c0-0.569,0.4612-1.0302,1.0301-1.0302h21.5377    c0.569,0,1.0302,0.4612,1.0302,1.0302V14.48385z" style="fill:#779DE0;"/></g></g></svg>